<svg width="692" height="483" viewBox="0 0 692 483" fill="none" xmlns="http://www.w3.org/2000/svg">
<path d="M78.4227 364.533L257.174 296.419C257.174 296.419 355.902 260.962 445.278 233.436C534.653 205.911 563.752 220.373 532.575 279.623L526.339 301.084L509.711 326.744L563.752 308.082C712.903 267.807 736.969 308.916 609.479 364.533L355.902 463.438C248.241 504.226 83.8424 475.719 194.819 428.448C317.934 369.998 222.819 364.697 130.385 402.322C-8.73464 452.132 -52.5229 402.322 78.4227 364.533Z" fill="#856D6D"/>
<path d="M184.105 336.539C140.496 309.128 102.352 264.37 298.651 304.624C494.95 344.877 304.078 342.673 184.105 336.539Z" fill="#A59494"/>
<path d="M241.837 292.003L283.827 329.093V387.461H214.128L173.566 351.233V292.003H241.837Z" fill="#D9D9D9"/>
<path d="M513.205 278.777V366.184C466.073 375.097 348.156 387.576 253.548 366.184V278.777C367.58 -226.115 474.166 68.4052 513.205 278.777Z" fill="#D9D9D9"/>
<ellipse cx="383.234" cy="235.936" rx="45.1328" ry="46.2913" fill="#131313"/>
<ellipse cx="383.234" cy="235.936" rx="45.1328" ry="46.2913" fill="#131313"/>
<path d="M365.238 264.688C381.901 260.854 413.684 246.517 407.514 219.834C427.395 256.407 387.614 264.976 365.238 264.688Z" fill="white"/>
<path d="M399.801 273.601C392.946 276.849 376.664 277.243 370.665 277.339C379.425 278.585 407.8 279.927 418.94 258.65C410.942 266.988 415.512 262.675 409.228 268.713L409.228 268.713C405.514 270.726 403.039 272.068 399.801 273.601Z" fill="white"/>
<path d="M214.128 327.656H283.827V387.461H214.128V327.656Z" fill="#EAEAEA"/>
<path d="M224.412 311.554L243.265 328.231H283.542L241.551 292.003V311.554H224.412Z" fill="white"/>
<path d="M213.843 328.806L173.566 292.578V350.945L213.843 387.461V328.806Z" fill="#A59494"/>
<path d="M194.704 312.129H208.415L224.126 327.943H213.557L194.704 312.129Z" fill="white"/>
<path d="M251.549 316.442C235.781 314.372 238.885 323.247 242.408 327.943H282.97L251.549 301.204C249.721 309.714 250.787 314.909 251.549 316.442Z" fill="#A59494"/>
<path d="M514.481 375.753C525.188 408.408 504.551 401.949 500.039 390.015L476.842 322.738C472.661 321.411 463.799 317.077 461.805 310.347C459.811 303.618 462.502 301.804 464.097 301.738L472.014 313.101L481.677 311.242L482.757 300.52L475.022 290.694C477.032 286.474 483.97 285.963 490.197 294.787C495.179 301.846 492.686 311.731 490.816 315.791L514.481 375.753Z" fill="#A59494"/>
<path d="M516.195 374.028C526.902 406.682 506.265 400.223 501.752 388.29L478.556 321.012C474.375 319.686 465.513 315.352 463.519 308.622C461.525 301.893 464.216 300.079 465.811 300.013L473.728 311.376L483.391 309.517L484.471 298.794L476.736 288.969C478.746 284.749 485.684 284.238 491.911 293.062C496.893 300.121 494.4 310.005 492.53 314.065L516.195 374.028Z" fill="#D9D9D9" stroke="white"/>
<path d="M475.213 289.415C469.043 282.515 475.689 283.856 479.784 285.39L489.782 298.041C491.4 304.558 494.58 322.365 488.639 319.605C482.697 316.845 496.447 351.424 504.064 369.059H493.209C476.599 339.649 474.696 325.734 476.142 321.056C474.543 322.391 470.52 321.015 462.359 308.967C452.075 293.785 461.883 298.999 468.072 303.504L479.784 317.017C467.213 298.585 471.014 293.298 478.355 293.934L475.213 289.415Z" fill="#A59494"/>
<path d="M514.481 374.028C525.188 406.682 504.551 400.223 500.039 388.29L476.842 321.012C472.661 319.686 463.799 315.352 461.805 308.622C459.811 301.893 462.502 300.079 464.097 300.013L472.014 311.376L481.677 309.517L482.757 298.794L475.022 288.969C477.032 284.749 483.97 284.238 490.197 293.062C495.179 300.121 492.686 310.005 490.816 314.065L514.481 374.028Z" fill="#D9D9D9"/>
</svg>
